<svg width="94" height="94" viewBox="0 0 94 94" fill="none" xmlns="http://www.w3.org/2000/svg">
<g clip-path="url(#clip0_5039_2909)">
<path d="M80.7224 0.000488281H74.9677C74.5558 0.000488281 74.2217 0.334627 74.2217 0.746488C74.2217 1.15835 74.5558 1.49249 74.9677 1.49249H79.9764V6.50096C79.9764 6.91283 80.3105 7.24696 80.7224 7.24696C81.1343 7.24696 81.4684 6.91283 81.4684 6.50096V0.746519C81.4684 0.334658 81.1346 0.000488281 80.7224 0.000488281Z" fill="#CAFF59"/>
<path d="M80.7224 86.7544C80.3105 86.7544 79.9764 87.0885 79.9764 87.5004V92.5089H74.9677C74.5558 92.5089 74.2217 92.843 74.2217 93.2549C74.2217 93.6667 74.5558 94.0009 74.9677 94.0009H80.7224C81.1343 94.0009 81.4684 93.6667 81.4684 93.2549V87.5004C81.4684 87.0883 81.1346 86.7544 80.7224 86.7544Z" fill="#CAFF59"/>
<path d="M19.0349 92.5118H14.0262V87.5033C14.0262 87.0915 13.692 86.7573 13.2802 86.7573C12.8683 86.7573 12.5342 87.0915 12.5342 87.5033V93.2578C12.5342 93.6696 12.8683 94.0038 13.2802 94.0038H19.0349C19.4468 94.0038 19.7809 93.6696 19.7809 93.2578C19.7809 92.8456 19.4468 92.5118 19.0349 92.5118Z" fill="#CAFF59"/>
<path d="M80.7226 9.37744C80.3107 9.37744 79.9766 9.71158 79.9766 10.1234V17.339C79.9766 17.7508 80.3107 18.085 80.7226 18.085C81.1344 18.085 81.4686 17.7508 81.4686 17.339V10.1234C81.4686 9.71158 81.1347 9.37744 80.7226 9.37744Z" fill="#CAFF59"/>
<path d="M80.7226 20.4678C80.3107 20.4678 79.9766 20.8019 79.9766 21.2138V28.4293C79.9766 28.8412 80.3107 29.1753 80.7226 29.1753C81.1344 29.1753 81.4686 28.8412 81.4686 28.4293V21.2138C81.4686 20.8016 81.1347 20.4678 80.7226 20.4678Z" fill="#CAFF59"/>
<path d="M80.7226 31.5566C80.3107 31.5566 79.9766 31.8908 79.9766 32.3026V39.5182C79.9766 39.93 80.3107 40.2642 80.7226 40.2642C81.1344 40.2642 81.4686 39.93 81.4686 39.5182V32.3026C81.4686 31.8908 81.1347 31.5566 80.7226 31.5566Z" fill="#CAFF59"/>
<path d="M80.7226 42.646C80.3107 42.646 79.9766 42.9801 79.9766 43.392V50.6075C79.9766 51.0194 80.3107 51.3535 80.7226 51.3535C81.1344 51.3535 81.4686 51.0194 81.4686 50.6075V43.392C81.4686 42.9801 81.1347 42.646 80.7226 42.646Z" fill="#CAFF59"/>
<path d="M80.7226 53.7358C80.3107 53.7358 79.9766 54.07 79.9766 54.4818V61.6974C79.9766 62.1092 80.3107 62.4434 80.7226 62.4434C81.1344 62.4434 81.4686 62.1092 81.4686 61.6974V54.4818C81.4686 54.07 81.1347 53.7358 80.7226 53.7358Z" fill="#CAFF59"/>
<path d="M80.7226 64.8257C80.3107 64.8257 79.9766 65.1598 79.9766 65.5717V72.7872C79.9766 73.1991 80.3107 73.5332 80.7226 73.5332C81.1344 73.5332 81.4686 73.1991 81.4686 72.7872V65.5717C81.4686 65.1595 81.1347 64.8257 80.7226 64.8257Z" fill="#CAFF59"/>
<path d="M80.7226 75.9146C80.3107 75.9146 79.9766 76.2487 79.9766 76.6605V83.8761C79.9766 84.2879 80.3107 84.6221 80.7226 84.6221C81.1344 84.6221 81.4686 84.2879 81.4686 83.8761V76.6605C81.4686 76.2487 81.1347 75.9146 80.7226 75.9146Z" fill="#CAFF59"/>
<path d="M13.2799 29.1753C13.6918 29.1753 14.0259 28.8412 14.0259 28.4293V21.2138C14.0259 20.8019 13.6918 20.4678 13.2799 20.4678C12.8681 20.4678 12.5339 20.8019 12.5339 21.2138V28.4293C12.5339 28.8412 12.8678 29.1753 13.2799 29.1753Z" fill="#CAFF59"/>
<path d="M13.2799 40.2651C13.6918 40.2651 14.0259 39.931 14.0259 39.5191V32.3036C14.0259 31.8918 13.6918 31.5576 13.2799 31.5576C12.8681 31.5576 12.5339 31.8918 12.5339 32.3036V39.5191C12.5339 39.931 12.8678 40.2651 13.2799 40.2651Z" fill="#CAFF59"/>
<path d="M13.2799 51.354C13.6918 51.354 14.0259 51.0199 14.0259 50.608V43.3925C14.0259 42.9806 13.6918 42.6465 13.2799 42.6465C12.8681 42.6465 12.5339 42.9806 12.5339 43.3925V50.608C12.5339 51.0202 12.8678 51.354 13.2799 51.354Z" fill="#CAFF59"/>
<path d="M13.2799 62.4434C13.6918 62.4434 14.0259 62.1092 14.0259 61.6974V54.4818C14.0259 54.07 13.6918 53.7358 13.2799 53.7358C12.8681 53.7358 12.5339 54.07 12.5339 54.4818V61.6974C12.5339 62.1092 12.8678 62.4434 13.2799 62.4434Z" fill="#CAFF59"/>
<path d="M13.2799 73.5332C13.6918 73.5332 14.0259 73.1991 14.0259 72.7872V65.5717C14.0259 65.1598 13.6918 64.8257 13.2799 64.8257C12.8681 64.8257 12.5339 65.1598 12.5339 65.5717V72.7872C12.5339 73.1991 12.8678 73.5332 13.2799 73.5332Z" fill="#CAFF59"/>
<path d="M13.2799 84.6235C13.6918 84.6235 14.0259 84.2894 14.0259 83.8775V76.662C14.0259 76.2502 13.6918 75.916 13.2799 75.916C12.8681 75.916 12.5339 76.2502 12.5339 76.662V83.8775C12.5339 84.2894 12.8678 84.6235 13.2799 84.6235Z" fill="#CAFF59"/>
<path d="M70.9176 92.5117H64.6479C64.236 92.5117 63.9019 92.8459 63.9019 93.2577C63.9019 93.6696 64.236 94.0037 64.6479 94.0037H70.9176C71.3294 94.0037 71.6636 93.6696 71.6636 93.2577C71.6636 92.8456 71.3294 92.5117 70.9176 92.5117Z" fill="#CAFF59"/>
<path d="M60.5267 92.5117H54.257C53.8451 92.5117 53.511 92.8459 53.511 93.2577C53.511 93.6696 53.8451 94.0037 54.257 94.0037H60.5267C60.9386 94.0037 61.2727 93.6696 61.2727 93.2577C61.2727 92.8456 60.9389 92.5117 60.5267 92.5117Z" fill="#CAFF59"/>
<path d="M50.1349 92.5117H43.8651C43.4533 92.5117 43.1191 92.8459 43.1191 93.2577C43.1191 93.6696 43.4533 94.0037 43.8651 94.0037H50.1349C50.5467 94.0037 50.8809 93.6696 50.8809 93.2577C50.8809 92.8456 50.5467 92.5117 50.1349 92.5117Z" fill="#CAFF59"/>
<path d="M39.7433 92.5117H33.4735C33.0617 92.5117 32.7275 92.8459 32.7275 93.2577C32.7275 93.6696 33.0617 94.0037 33.4735 94.0037H39.7433C40.1551 94.0037 40.4893 93.6696 40.4893 93.2577C40.4893 92.8456 40.1554 92.5117 39.7433 92.5117Z" fill="#CAFF59"/>
<path d="M29.3522 92.5117H23.0822C22.6703 92.5117 22.3362 92.8459 22.3362 93.2577C22.3362 93.6696 22.6703 94.0037 23.0822 94.0037H29.3522C29.7641 94.0037 30.0982 93.6696 30.0982 93.2577C30.0982 92.8456 29.7641 92.5117 29.3522 92.5117Z" fill="#CAFF59"/>
<path d="M70.9176 0H64.6479C64.236 0 63.9019 0.334139 63.9019 0.746C63.9019 1.15786 64.236 1.492 64.6479 1.492H70.9176C71.3294 1.492 71.6636 1.15786 71.6636 0.746C71.6636 0.334139 71.3294 0 70.9176 0Z" fill="#CAFF59"/>
<path d="M60.5267 0H54.257C53.8451 0 53.511 0.334139 53.511 0.746C53.511 1.15786 53.8451 1.492 54.257 1.492H60.5267C60.9386 1.492 61.2727 1.15786 61.2727 0.746C61.2727 0.334139 60.9389 0 60.5267 0Z" fill="#CAFF59"/>
<path d="M50.1349 0H43.8651C43.4533 0 43.1191 0.334139 43.1191 0.746C43.1191 1.15786 43.4533 1.492 43.8651 1.492H50.1349C50.5467 1.492 50.8809 1.15786 50.8809 0.746C50.8809 0.334139 50.5467 0 50.1349 0Z" fill="#CAFF59"/>
<path d="M39.7433 0H33.4735C33.0617 0 32.7275 0.334139 32.7275 0.746C32.7275 1.15786 33.0617 1.492 33.4735 1.492H39.7433C40.1551 1.492 40.4893 1.15786 40.4893 0.746C40.4893 0.334139 40.1554 0 39.7433 0Z" fill="#CAFF59"/>
<path d="M13.2806 18.0858C13.6924 18.0858 14.0266 17.7517 14.0266 17.3398V14.4776H26.2176C26.6294 14.4776 26.9636 14.1434 26.9636 13.7316L26.9633 1.492H29.3521C29.764 1.492 30.0981 1.15786 30.0981 0.746C30.0981 0.334139 29.764 0 29.3521 0H26.2172C26.0189 0 25.8286 0.0789443 25.6888 0.219396L12.7512 13.2055C12.612 13.3453 12.5337 13.5347 12.5337 13.7321V17.3397C12.5337 17.7519 12.8678 18.0861 13.28 18.0861L13.2806 18.0858ZM25.4716 2.55152V12.9855H15.0767L25.4716 2.55152Z" fill="#CAFF59"/>
</g>
<defs>
<clipPath id="clip0_5039_2909">
<rect width="94" height="94" fill="white"/>
</clipPath>
</defs>
</svg>
